<?xml version="1.0" standalone="no"?><!DOCTYPE svg PUBLIC "-//W3C//DTD SVG 1.1//EN" "http://www.w3.org/Graphics/SVG/1.1/DTD/svg11.dtd"><svg class="icon" width="200px" height="200.00px" viewBox="0 0 1024 1024" version="1.1" xmlns="http://www.w3.org/2000/svg"><path fill="#333333" d="M450.56 573.44c12.288 0 20.48-8.192 20.48-20.48V430.08c0-12.288-8.192-20.48-20.48-20.48s-20.48 8.192-20.48 20.48v122.88c0 10.24 8.192 20.48 20.48 20.48zM880.64 0H143.36c-34.816 0-61.44 26.624-61.44 61.44v950.272l397.312-108.544c53.248-14.336 94.208-67.584 94.208-122.88v-552.96c0-55.296-40.96-108.544-94.208-122.88L247.808 40.96h630.784c10.24 0 20.48 8.192 20.48 20.48v921.6h40.96V61.44C942.08 26.624 915.456 0 880.64 0zM468.992 143.36c34.816 10.24 63.488 47.104 63.488 83.968v552.96c0 36.864-28.672 73.728-63.488 83.968L122.88 958.464V104.448c0-16.384 6.144-28.672 14.336-34.816 6.144-4.096 14.336-8.192 22.528-8.192 4.096 0 10.24 0 14.336 2.048l294.912 79.872z"  /></svg>