<?xml version="1.0" standalone="no"?><!DOCTYPE svg PUBLIC "-//W3C//DTD SVG 1.1//EN" "http://www.w3.org/Graphics/SVG/1.1/DTD/svg11.dtd"><svg class="icon" width="200px" height="200.00px" viewBox="0 0 1024 1024" version="1.1" xmlns="http://www.w3.org/2000/svg"><path fill="#333333" d="M890.222669 310.950008c-2.304486-2.066055-5.101181-3.15997-8.139378-3.15997-0.363274 0-0.726547 0-1.213641 0l-126.139885 12.153808c-1.820462 0.119727-3.3984 0.846274-4.858658 1.697665-1.457188-0.851391-3.15997-1.577938-4.981455-1.697665L618.750791 307.790038c-0.36225 0-0.726547 0-1.214664 0-3.036149 0-5.950526 1.094938-8.137331 3.15997-2.554172 2.309602-4.012384 5.589298-4.012384 8.993838l0 116.89636c0 3.40454 1.458211 6.565533 3.88754 8.874111 2.311649 2.066055 5.226025 3.28072 8.262174 3.28072 0.24457 0 0.61296 0 0.851391 0l126.139885-9.113565c1.940189-0.12382 3.643993-0.850367 5.222955-1.701758 1.582031 0.970094 3.27765 1.577938 5.222955 1.701758l126.135792 9.113565c0.24764 0 0.610914 0 0.851391 0 3.040243 0 6.076392-1.094938 8.262174-3.28072 2.434445-2.308579 3.891633-5.469572 3.891633-8.874111L894.114303 319.943846C894.235053 316.54033 892.774795 313.25961 890.222669 310.950008zM743.795738 427.850461l-126.134769 9.113565L617.66097 319.943846l126.134769 12.150738L743.795738 427.850461zM882.083292 319.943846l0 58.814524L818.164516 378.75837l0-52.741201L882.083292 319.943846zM814.758953 326.505285l0 52.372811-58.8135 0 0-46.783513L814.758953 326.505285zM755.945453 382.281613l58.8135 0 0 49.819662-58.8135-4.250814L755.945453 382.281613zM818.164516 432.345846l0-50.064232 63.795978 0 0 54.683437L818.164516 432.345846zM630.543372 373.287775c3.085268 0 5.585205 3.209088 5.585205 7.16826 0 3.963265-2.499937 7.17133-5.585205 7.17133-3.091408 0-5.594415-3.209088-5.594415-7.17133C624.948957 376.496863 627.452987 373.287775 630.543372 373.287775zM965.809181 156.86363c-1.214664-1.089821-2.917446-1.577938-4.495384-1.577938l-449.010387 69.385277L62.567499 155.285692c-1.701758 0-3.279696 0.488117-4.496407 1.577938-1.092891 1.094938-1.822508 2.677992-1.822508 4.374634l0 467.239564c0 2.183735 1.214664 4.249791 3.157923 5.344728l449.741028 234.165204c0.851391 0.488117 1.817392 0.726547 2.792603 0.726547 0.976234 0 1.940189-0.23843 2.791579-0.726547l449.737958-234.165204c1.947352-1.093914 3.28072-3.036149 3.28072-5.344728L967.750393 161.238264C967.630666 159.540599 966.899002 157.957545 965.809181 156.86363zM70.100056 169.625282l434.065 68.415183 0 305.85906-107.911732 18.711154-0.363274-264.542048c0-3.28072-2.429329-6.198166-5.833869-6.561439l-143.875828-14.46341c-1.943258-0.239454-3.889587 0.367367-5.348821 1.582031-1.456165 1.334391-2.307555 3.036149-2.307555 4.982478l0 306.347177-168.424944 29.164227L70.099033 169.625282zM269.634532 313.743634c-1.702782 0.243547-3.038196 1.701758-3.038196 3.403516l-0.366344 229.79057c0 1.700735 1.337461 3.160993 3.039219 3.403516l113.615641 13.120832 0 1.339508-130.992403 22.721491L251.892449 291.139823l114.467031 11.059893L269.634532 313.743634zM382.401852 307.301921l0.367367 249.236458-109.732194-12.762675 0.363274-223.592404L382.401852 307.301921zM135.113769 657.521305l-48.607044-25.276686 425.433412-73.883731 30.133298 5.226025-402.950352 96.119151L135.113769 657.521305zM144.590608 662.498666l407.572626-97.091292 49.335638 8.625448L198.546473 690.691775 144.590608 662.498666zM203.648678 693.242877l406.721235-117.749798 50.550303 8.751315L259.547803 722.408127 203.648678 693.242877zM264.408507 724.95923l404.654156-139.258671 59.905368 10.45205L322.49239 755.219417 264.408507 724.95923zM327.236438 757.648746 736.627479 597.367273l63.551408 11.057847L383.983883 787.178293 327.236438 757.648746zM388.598994 789.607622l418.748153-179.965791 57.599859 9.959839L447.899588 820.472584 388.598994 789.607622zM511.940137 853.766874l-59.665915-30.984688L871.632265 620.821451l65.741283 11.418051L511.940137 853.766874zM953.77817 619.120716l-433.940157-75.343989L519.838014 237.915621l433.940157-68.415183L953.77817 619.120716zM279.112394 436.233386A4.156 7.719 0 1 1 279.112394 437.256692Z" /></svg>