<?xml version="1.0" standalone="no"?><!DOCTYPE svg PUBLIC "-//W3C//DTD SVG 1.1//EN" "http://www.w3.org/Graphics/SVG/1.1/DTD/svg11.dtd"><svg class="icon" width="200px" height="200.00px" viewBox="0 0 1024 1024" version="1.1" xmlns="http://www.w3.org/2000/svg"><path fill="#333333" d="M512 256C268.8 256 85.333333 347.733333 85.333333 469.333333c0 104.533333 136.106667 186.88 328.96 208.213334l-17.92 17.493333a42.666667 42.666667 0 0 0 0 60.586667 42.666667 42.666667 0 0 0 60.586667 0l85.333333-85.333334a42.666667 42.666667 0 0 0 8.96-14.08 42.666667 42.666667 0 0 0 0-32.426666 42.666667 42.666667 0 0 0-8.96-14.08l-85.333333-85.333334a42.666667 42.666667 0 0 0-60.586667 60.586667l5.12 4.693333C256 569.173333 170.666667 512 170.666667 469.333333c0-52.053333 133.12-128 341.333333-128s341.333333 75.946667 341.333333 128c0 35.413333-61.866667 85.333333-179.626666 110.933334a42.666667 42.666667 0 0 0-33.706667 50.773333 42.666667 42.666667 0 0 0 50.773333 32.853333c155.733333-34.133333 247.893333-106.666667 247.893334-194.56 0-121.6-183.466667-213.333333-426.666667-213.333333z" /></svg>