<?xml version="1.0" standalone="no"?><!DOCTYPE svg PUBLIC "-//W3C//DTD SVG 1.1//EN" "http://www.w3.org/Graphics/SVG/1.1/DTD/svg11.dtd"><svg class="icon" width="200px" height="200.00px" viewBox="0 0 1024 1024" version="1.1" xmlns="http://www.w3.org/2000/svg"><path fill="#333333" d="M393.1456 96a29.7152 29.7152 0 0 1 29.6832 28.352l0.0256 1.3632v267.4304h475.4304a29.7152 29.7152 0 0 1 29.6832 28.352l0.032 1.3568v475.4304a29.7152 29.7152 0 0 1-28.352 29.6832l-1.3632 0.032H125.7152a29.7152 29.7152 0 0 1-29.6832-28.352l-0.032-1.3632V125.7152a29.7152 29.7152 0 0 1 28.352-29.6832l1.3632-0.032h267.4304z m-29.7152 59.4304h-208v713.1392h208V155.4304z m505.1392 653.7152H422.8544v59.424h445.7152v-59.424z m0-118.8608H422.8544v59.4304h445.7152v-59.4304z m-564.5696 0a29.7152 29.7152 0 0 1 0 59.4304H214.8544a29.7152 29.7152 0 1 1 0-59.4304z m564.5696-118.8544H422.8544v59.424h445.7152v-59.424z m-594.2848-29.7152a29.7152 29.7152 0 0 1 0 59.4304h-29.7152a29.7152 29.7152 0 1 1 0-59.4304z m594.2848-89.1456H422.8544V512h445.7152v-59.4304zM274.2848 393.152a29.7152 29.7152 0 0 1 0 59.424h-29.7152a29.7152 29.7152 0 1 1 0-59.424z m0-148.576a29.7152 29.7152 0 0 1 1.3632 59.3984l-1.3632 0.032h-29.7152a29.7152 29.7152 0 0 1-1.3568-59.392l1.3568-0.0384h29.7152z"  /></svg>